<svg width="262" height="52" viewBox="0 0 262 52" fill="none" xmlns="http://www.w3.org/2000/svg">
<path d="M81.176 17.32L74.912 34H71.744L65.456 17.32H68.384L73.328 31.192L78.296 17.32H81.176ZM95.5841 27.064C95.5841 27.56 95.5521 28.008 95.4881 28.408H85.3841C85.4641 29.464 85.8561 30.312 86.5601 30.952C87.2641 31.592 88.1281 31.912 89.1521 31.912C90.6241 31.912 91.6641 31.296 92.2721 30.064H95.2241C94.8241 31.28 94.0961 32.28 93.0401 33.064C92.0001 33.832 90.7041 34.216 89.1521 34.216C87.8881 34.216 86.7521 33.936 85.7441 33.376C84.7521 32.8 83.9681 32 83.3921 30.976C82.8321 29.936 82.5521 28.736 82.5521 27.376C82.5521 26.016 82.8241 24.824 83.3681 23.8C83.9281 22.76 84.7041 21.96 85.6961 21.4C86.7041 20.84 87.8561 20.56 89.1521 20.56C90.4001 20.56 91.5121 20.832 92.4881 21.376C93.4641 21.92 94.2241 22.688 94.7681 23.68C95.3121 24.656 95.5841 25.784 95.5841 27.064ZM92.7281 26.2C92.7121 25.192 92.3521 24.384 91.6481 23.776C90.9441 23.168 90.0721 22.864 89.0321 22.864C88.0881 22.864 87.2801 23.168 86.6081 23.776C85.9361 24.368 85.5361 25.176 85.4081 26.2H92.7281ZM97.3646 27.328C97.3646 26 97.6366 24.824 98.1806 23.8C98.7406 22.776 99.4926 21.984 100.437 21.424C101.397 20.848 102.461 20.56 103.629 20.56C104.493 20.56 105.341 20.752 106.173 21.136C107.021 21.504 107.693 22 108.189 22.624V16.24H110.949V34H108.189V32.008C107.741 32.648 107.117 33.176 106.317 33.592C105.533 34.008 104.629 34.216 103.605 34.216C102.453 34.216 101.397 33.928 100.437 33.352C99.4926 32.76 98.7406 31.944 98.1806 30.904C97.6366 29.848 97.3646 28.656 97.3646 27.328ZM108.189 27.376C108.189 26.464 107.997 25.672 107.613 25C107.245 24.328 106.757 23.816 106.149 23.464C105.541 23.112 104.885 22.936 104.181 22.936C103.477 22.936 102.821 23.112 102.213 23.464C101.605 23.8 101.109 24.304 100.725 24.976C100.357 25.632 100.173 26.416 100.173 27.328C100.173 28.24 100.357 29.04 100.725 29.728C101.109 30.416 101.605 30.944 102.213 31.312C102.837 31.664 103.493 31.84 104.181 31.84C104.885 31.84 105.541 31.664 106.149 31.312C106.757 30.96 107.245 30.448 107.613 29.776C107.997 29.088 108.189 28.288 108.189 27.376ZM130.55 20.56C131.59 20.56 132.518 20.776 133.334 21.208C134.166 21.64 134.814 22.28 135.278 23.128C135.758 23.976 135.998 25 135.998 26.2V34H133.286V26.608C133.286 25.424 132.99 24.52 132.398 23.896C131.806 23.256 130.998 22.936 129.974 22.936C128.95 22.936 128.134 23.256 127.526 23.896C126.934 24.52 126.638 25.424 126.638 26.608V34H123.926V26.608C123.926 25.424 123.63 24.52 123.038 23.896C122.446 23.256 121.638 22.936 120.614 22.936C119.59 22.936 118.774 23.256 118.166 23.896C117.574 24.52 117.278 25.424 117.278 26.608V34H114.542V20.776H117.278V22.288C117.726 21.744 118.294 21.32 118.982 21.016C119.67 20.712 120.406 20.56 121.19 20.56C122.246 20.56 123.19 20.784 124.022 21.232C124.854 21.68 125.494 22.328 125.942 23.176C126.342 22.376 126.966 21.744 127.814 21.28C128.662 20.8 129.574 20.56 130.55 20.56ZM138.568 27.328C138.568 26 138.84 24.824 139.384 23.8C139.944 22.776 140.696 21.984 141.64 21.424C142.6 20.848 143.656 20.56 144.808 20.56C145.848 20.56 146.752 20.768 147.52 21.184C148.304 21.584 148.928 22.088 149.392 22.696V20.776H152.152V34H149.392V32.032C148.928 32.656 148.296 33.176 147.496 33.592C146.696 34.008 145.784 34.216 144.76 34.216C143.624 34.216 142.584 33.928 141.64 33.352C140.696 32.76 139.944 31.944 139.384 30.904C138.84 29.848 138.568 28.656 138.568 27.328ZM149.392 27.376C149.392 26.464 149.2 25.672 148.816 25C148.448 24.328 147.96 23.816 147.352 23.464C146.744 23.112 146.088 22.936 145.384 22.936C144.68 22.936 144.024 23.112 143.416 23.464C142.808 23.8 142.312 24.304 141.928 24.976C141.56 25.632 141.376 26.416 141.376 27.328C141.376 28.24 141.56 29.04 141.928 29.728C142.312 30.416 142.808 30.944 143.416 31.312C144.04 31.664 144.696 31.84 145.384 31.84C146.088 31.84 146.744 31.664 147.352 31.312C147.96 30.96 148.448 30.448 148.816 29.776C149.2 29.088 149.392 28.288 149.392 27.376ZM157.137 19.024C156.641 19.024 156.225 18.856 155.889 18.52C155.553 18.184 155.385 17.768 155.385 17.272C155.385 16.776 155.553 16.36 155.889 16.024C156.225 15.688 156.641 15.52 157.137 15.52C157.617 15.52 158.025 15.688 158.361 16.024C158.697 16.36 158.865 16.776 158.865 17.272C158.865 17.768 158.697 18.184 158.361 18.52C158.025 18.856 157.617 19.024 157.137 19.024ZM158.481 20.776V34H155.745V20.776H158.481ZM173.804 34.168C172.684 34.168 171.676 33.976 170.78 33.592C169.884 33.192 169.18 32.632 168.668 31.912C168.156 31.192 167.9 30.352 167.9 29.392H170.828C170.892 30.112 171.172 30.704 171.668 31.168C172.18 31.632 172.892 31.864 173.804 31.864C174.748 31.864 175.484 31.64 176.012 31.192C176.54 30.728 176.804 30.136 176.804 29.416C176.804 28.856 176.636 28.4 176.3 28.048C175.98 27.696 175.572 27.424 175.076 27.232C174.596 27.04 173.924 26.832 173.06 26.608C171.972 26.32 171.084 26.032 170.396 25.744C169.724 25.44 169.148 24.976 168.668 24.352C168.188 23.728 167.948 22.896 167.948 21.856C167.948 20.896 168.188 20.056 168.668 19.336C169.148 18.616 169.82 18.064 170.684 17.68C171.548 17.296 172.548 17.104 173.684 17.104C175.3 17.104 176.62 17.512 177.644 18.328C178.684 19.128 179.26 20.232 179.372 21.64H176.348C176.3 21.032 176.012 20.512 175.484 20.08C174.956 19.648 174.26 19.432 173.396 19.432C172.612 19.432 171.972 19.632 171.476 20.032C170.98 20.432 170.732 21.008 170.732 21.76C170.732 22.272 170.884 22.696 171.188 23.032C171.508 23.352 171.908 23.608 172.388 23.8C172.868 23.992 173.524 24.2 174.356 24.424C175.46 24.728 176.356 25.032 177.044 25.336C177.748 25.64 178.34 26.112 178.82 26.752C179.316 27.376 179.564 28.216 179.564 29.272C179.564 30.12 179.332 30.92 178.868 31.672C178.42 32.424 177.756 33.032 176.876 33.496C176.012 33.944 174.988 34.168 173.804 34.168ZM185.984 23.008V30.328C185.984 30.824 186.096 31.184 186.32 31.408C186.56 31.616 186.96 31.72 187.52 31.72H189.2V34H187.04C185.808 34 184.864 33.712 184.208 33.136C183.552 32.56 183.224 31.624 183.224 30.328V23.008H181.664V20.776H183.224V17.488H185.984V20.776H189.2V23.008H185.984ZM197.458 34.216C196.21 34.216 195.082 33.936 194.074 33.376C193.066 32.8 192.274 32 191.698 30.976C191.122 29.936 190.834 28.736 190.834 27.376C190.834 26.032 191.13 24.84 191.722 23.8C192.314 22.76 193.122 21.96 194.146 21.4C195.17 20.84 196.314 20.56 197.578 20.56C198.842 20.56 199.986 20.84 201.01 21.4C202.034 21.96 202.842 22.76 203.434 23.8C204.026 24.84 204.322 26.032 204.322 27.376C204.322 28.72 204.018 29.912 203.41 30.952C202.802 31.992 201.97 32.8 200.914 33.376C199.874 33.936 198.722 34.216 197.458 34.216ZM197.458 31.84C198.162 31.84 198.818 31.672 199.426 31.336C200.05 31 200.554 30.496 200.938 29.824C201.322 29.152 201.514 28.336 201.514 27.376C201.514 26.416 201.33 25.608 200.962 24.952C200.594 24.28 200.106 23.776 199.498 23.44C198.89 23.104 198.234 22.936 197.53 22.936C196.826 22.936 196.17 23.104 195.562 23.44C194.97 23.776 194.498 24.28 194.146 24.952C193.794 25.608 193.618 26.416 193.618 27.376C193.618 28.8 193.978 29.904 194.698 30.688C195.434 31.456 196.354 31.84 197.458 31.84ZM209.763 22.696C210.163 22.024 210.691 21.504 211.347 21.136C212.019 20.752 212.811 20.56 213.723 20.56V23.392H213.027C211.955 23.392 211.139 23.664 210.579 24.208C210.035 24.752 209.763 25.696 209.763 27.04V34H207.027V20.776H209.763V22.696ZM215.326 27.328C215.326 26 215.598 24.824 216.142 23.8C216.702 22.776 217.454 21.984 218.398 21.424C219.358 20.848 220.414 20.56 221.566 20.56C222.606 20.56 223.51 20.768 224.278 21.184C225.062 21.584 225.686 22.088 226.15 22.696V20.776H228.91V34H226.15V32.032C225.686 32.656 225.054 33.176 224.254 33.592C223.454 34.008 222.542 34.216 221.518 34.216C220.382 34.216 219.342 33.928 218.398 33.352C217.454 32.76 216.702 31.944 216.142 30.904C215.598 29.848 215.326 28.656 215.326 27.328ZM226.15 27.376C226.15 26.464 225.958 25.672 225.574 25C225.206 24.328 224.718 23.816 224.11 23.464C223.502 23.112 222.846 22.936 222.142 22.936C221.438 22.936 220.782 23.112 220.174 23.464C219.566 23.8 219.07 24.304 218.686 24.976C218.318 25.632 218.134 26.416 218.134 27.328C218.134 28.24 218.318 29.04 218.686 29.728C219.07 30.416 219.566 30.944 220.174 31.312C220.798 31.664 221.454 31.84 222.142 31.84C222.846 31.84 223.502 31.664 224.11 31.312C224.718 30.96 225.206 30.448 225.574 29.776C225.958 29.088 226.15 28.288 226.15 27.376ZM237.831 20.56C238.855 20.56 239.759 20.768 240.543 21.184C241.343 21.584 241.967 22.088 242.415 22.696V20.776H245.175V34.216C245.175 35.432 244.919 36.512 244.407 37.456C243.895 38.416 243.151 39.168 242.175 39.712C241.215 40.256 240.063 40.528 238.719 40.528C236.927 40.528 235.439 40.104 234.255 39.256C233.071 38.424 232.399 37.288 232.239 35.848H234.951C235.159 36.536 235.599 37.088 236.271 37.504C236.959 37.936 237.775 38.152 238.719 38.152C239.823 38.152 240.711 37.816 241.383 37.144C242.071 36.472 242.415 35.496 242.415 34.216V32.008C241.951 32.632 241.319 33.16 240.519 33.592C239.735 34.008 238.839 34.216 237.831 34.216C236.679 34.216 235.623 33.928 234.663 33.352C233.719 32.76 232.967 31.944 232.407 30.904C231.863 29.848 231.591 28.656 231.591 27.328C231.591 26 231.863 24.824 232.407 23.8C232.967 22.776 233.719 21.984 234.663 21.424C235.623 20.848 236.679 20.56 237.831 20.56ZM242.415 27.376C242.415 26.464 242.223 25.672 241.839 25C241.471 24.328 240.983 23.816 240.375 23.464C239.767 23.112 239.111 22.936 238.407 22.936C237.703 22.936 237.047 23.112 236.439 23.464C235.831 23.8 235.335 24.304 234.951 24.976C234.583 25.632 234.399 26.416 234.399 27.328C234.399 28.24 234.583 29.04 234.951 29.728C235.335 30.416 235.831 30.944 236.439 31.312C237.063 31.664 237.719 31.84 238.407 31.84C239.111 31.84 239.767 31.664 240.375 31.312C240.983 30.96 241.471 30.448 241.839 29.776C242.223 29.088 242.415 28.288 242.415 27.376ZM260.889 27.064C260.889 27.56 260.857 28.008 260.793 28.408H250.689C250.769 29.464 251.161 30.312 251.865 30.952C252.569 31.592 253.433 31.912 254.457 31.912C255.929 31.912 256.969 31.296 257.577 30.064H260.529C260.129 31.28 259.401 32.28 258.345 33.064C257.305 33.832 256.009 34.216 254.457 34.216C253.193 34.216 252.057 33.936 251.049 33.376C250.057 32.8 249.273 32 248.697 30.976C248.137 29.936 247.857 28.736 247.857 27.376C247.857 26.016 248.129 24.824 248.673 23.8C249.233 22.76 250.009 21.96 251.001 21.4C252.009 20.84 253.161 20.56 254.457 20.56C255.705 20.56 256.817 20.832 257.793 21.376C258.769 21.92 259.529 22.688 260.073 23.68C260.617 24.656 260.889 25.784 260.889 27.064ZM258.033 26.2C258.017 25.192 257.657 24.384 256.953 23.776C256.249 23.168 255.377 22.864 254.337 22.864C253.393 22.864 252.585 23.168 251.913 23.776C251.241 24.368 250.841 25.176 250.713 26.2H258.033Z" fill="#FA7275"/>
<rect opacity="0.2" width="48" height="48" rx="24" fill="#FA7275"/>
<rect x="21" y="20" width="32" height="32" rx="16" fill="#FA7275"/>
</svg>
